<?xml version="1.0" standalone="no"?>
<!DOCTYPE svg PUBLIC "-//W3C//DTD SVG 20010904//EN"
 "http://www.w3.org/TR/2001/REC-SVG-20010904/DTD/svg10.dtd">
<svg version="1.0" xmlns="http://www.w3.org/2000/svg"
 width="339.000000pt" height="339.000000pt" viewBox="0 0 339.000000 339.000000"
 preserveAspectRatio="xMidYMid meet">
<metadata>
Created by potrace 1.14, written by Peter Selinger 2001-2017
</metadata>
<g transform="translate(0.000000,339.000000) scale(0.100000,-0.100000)"
fill="#000000" stroke="none">
<path d="M1100 2975 c0 -3 12 -17 27 -31 33 -31 26 -38 -25 -24 -33 8 -48 7
-81 -6 -45 -18 -62 -43 -28 -41 68 3 103 -14 60 -30 -39 -14 -72 -45 -78 -74
-5 -23 -11 -29 -23 -24 -55 23 -98 28 -153 16 -52 -10 -61 -10 -91 9 -67 41
-198 17 -260 -47 -36 -37 -58 -79 -58 -110 0 -11 7 -8 25 11 16 17 32 26 41
22 8 -3 26 1 39 10 14 9 25 11 29 5 4 -6 18 -3 37 7 24 13 33 14 36 5 3 -8 14
-11 29 -7 31 8 30 4 -5 -51 -39 -62 -55 -133 -48 -211 6 -64 6 -64 -18 -58
l-25 6 -2 -198 -3 -198 -115 -31 c-165 -44 -153 -35 -126 -92 52 -112 53 -119
11 -243 -20 -61 -34 -114 -31 -117 3 -4 45 6 93 20 49 15 107 30 131 33 l42 7
1 -124 0 -124 96 -80 c52 -44 119 -101 147 -126 28 -26 209 -181 401 -346 193
-165 385 -331 428 -368 43 -37 83 -65 90 -62 13 6 235 194 302 256 22 20 135
117 250 216 468 399 551 471 583 499 l32 30 0 113 c0 132 -9 126 125 87 110
-32 149 -39 143 -28 -3 5 -22 59 -41 121 l-36 112 34 87 c19 48 34 88 32 89
-1 1 -58 17 -127 36 l-125 34 -3 198 -2 198 -28 -3 c-22 -2 -26 0 -24 17 2 11
6 34 9 51 8 51 -16 140 -53 195 -19 28 -34 53 -34 56 0 3 11 3 25 1 13 -3 26
0 28 5 2 7 14 7 35 -2 17 -7 35 -10 41 -7 6 4 21 0 34 -9 13 -8 31 -13 40 -10
9 4 25 -5 41 -22 l26 -28 -14 49 c-8 27 -29 63 -46 81 -59 61 -190 83 -264 45
-34 -17 -45 -18 -87 -8 -47 11 -100 5 -151 -17 -13 -5 -19 -1 -23 18 -8 29
-51 72 -82 82 -50 14 -20 29 60 28 24 0 21 14 -7 32 -28 18 -66 22 -119 11
l-39 -7 19 25 c10 14 25 26 33 26 10 0 11 3 3 11 -19 19 -82 -9 -111 -50 -25
-35 -27 -36 -91 -36 -50 0 -77 -6 -112 -24 -43 -21 -48 -22 -75 -8 -84 43
-281 48 -383 8 l-55 -21 -53 26 c-43 22 -63 26 -108 22 -53 -4 -56 -3 -81 29
-14 18 -38 40 -54 48 -29 15 -60 20 -60 10z m705 -140 c165 -43 291 -164 342
-327 19 -61 22 -207 4 -251 -10 -26 -8 -31 32 -72 53 -53 105 -69 202 -62 68
5 69 4 47 -14 -57 -46 -191 -32 -260 26 -22 19 -43 35 -46 35 -2 0 -16 -19
-29 -41 l-25 -41 -377 -2 -377 -1 -30 43 c-28 40 -48 54 -48 32 0 -6 -21 -24
-46 -40 -76 -48 -189 -51 -249 -6 -18 13 -13 14 52 9 97 -8 152 8 206 62 42
41 42 42 30 81 -16 56 -16 160 2 229 65 250 323 403 570 340z m-440 -45 c2 -4
-7 -18 -21 -31 -25 -24 -26 -24 -40 -5 -8 11 -14 25 -14 31 0 12 67 17 75 5z
m735 4 c0 -9 -24 -54 -29 -54 -15 1 -53 38 -47 48 5 9 76 15 76 6z m-971 -136
c-21 -61 -46 -156 -56 -210 l-18 -98 -72 0 -73 0 -34 68 c-18 37 -49 97 -70
135 -20 37 -34 67 -30 67 3 0 22 -13 41 -30 18 -16 40 -30 48 -30 8 0 22 -11
31 -25 9 -14 22 -25 29 -25 8 0 17 -9 20 -20 3 -11 15 -25 26 -30 10 -6 19
-17 19 -25 0 -7 5 -17 11 -21 19 -11 5 125 -16 166 -10 19 -34 49 -53 67 l-35
32 48 -4 c25 -2 53 -9 61 -16 16 -13 18 -2 5 20 -12 18 8 51 30 51 9 0 22 7
29 15 7 8 16 12 21 9 5 -3 17 0 26 5 10 6 25 11 34 11 14 0 11 -17 -22 -112z
m1164 98 c10 0 22 -7 26 -15 5 -8 16 -11 25 -8 22 8 38 -26 30 -60 -7 -25 -5
-26 9 -15 18 15 97 26 97 13 0 -5 -11 -16 -24 -24 -52 -34 -97 -155 -78 -207
l9 -25 7 23 c4 12 14 22 21 22 8 0 17 11 21 25 4 15 13 25 23 25 10 0 23 12
30 26 6 14 17 24 24 21 6 -2 29 11 50 30 22 19 41 33 43 30 3 -3 -120 -252
-133 -266 -6 -8 -119 -10 -131 -2 -7 4 -21 52 -32 107 -10 54 -35 146 -54 204
-20 58 -36 107 -36 109 0 2 12 0 28 -4 15 -4 35 -8 45 -9z m-1093 -37 c0 -11
4 -17 10 -14 5 3 12 -7 16 -22 3 -15 8 -34 10 -41 2 -7 -5 -30 -15 -50 -23
-45 -41 -128 -41 -186 0 -47 -11 -61 -50 -61 -22 0 -25 5 -28 38 -6 74 68 375
89 361 5 -3 9 -14 9 -25z m1029 -49 c12 -36 31 -121 43 -189 23 -134 21 -141
-32 -133 -26 4 -30 8 -30 37 0 50 -18 135 -41 192 -23 58 -20 123 6 123 10 0
15 10 15 27 0 40 15 18 39 -57z m-1410 -208 c25 -56 42 -104 39 -108 -7 -6
-258 -8 -264 -1 -8 8 21 67 33 67 7 0 20 14 28 31 11 19 22 29 31 25 8 -3 14
-1 14 5 0 5 7 26 15 47 13 29 18 34 25 22 8 -13 10 -12 10 3 0 41 27 5 69 -91z
m1811 97 c0 -6 7 -9 15 -5 10 4 18 -6 26 -34 7 -22 18 -40 26 -40 8 0 22 -13
31 -29 9 -17 24 -32 33 -34 14 -4 36 -54 27 -63 -6 -5 -258 -7 -264 -1 -7 7
87 217 98 217 4 0 8 -5 8 -11z m-2023 -314 c73 -68 193 -73 275 -12 l28 21 42
-24 c55 -31 136 -32 196 -1 46 23 55 16 20 -16 -52 -47 -127 -66 -206 -52 -45
9 -58 8 -80 -7 -33 -21 -147 -30 -193 -15 -48 16 -96 60 -114 104 -8 20 -13
37 -11 37 3 0 22 -16 43 -35z m2199 -13 c-20 -39 -67 -77 -112 -92 -47 -16
-150 -8 -193 14 -27 14 -41 16 -81 7 -27 -6 -64 -8 -82 -4 -48 9 -126 50 -138
72 -10 19 -8 19 37 -1 62 -28 135 -28 191 1 l42 22 44 -26 c86 -51 197 -42
264 20 41 37 51 32 28 -13z m-2051 -136 c33 -1 71 3 85 8 46 17 3 -21 -45 -40
-46 -17 -77 -16 -160 7 -61 16 -63 18 -45 30 9 6 34 7 60 3 25 -4 72 -7 105
-8z m1844 -4 c19 -2 64 1 101 8 55 10 71 10 91 -1 l24 -13 -35 -7 c-19 -3 -48
-11 -63 -18 -16 -6 -44 -11 -62 -11 -36 0 -125 38 -125 53 0 5 8 6 18 2 9 -5
32 -10 51 -13z m-664 -52 c236 -13 348 -24 540 -56 257 -42 575 -120 575 -141
0 -6 -12 -38 -26 -71 l-25 -59 26 -82 c15 -45 25 -84 22 -87 -2 -2 -74 13
-159 35 -787 199 -1605 199 -2391 -1 -87 -22 -160 -38 -162 -36 -2 1 8 36 21
77 30 91 30 97 -1 167 -14 32 -22 61 -18 65 22 20 308 87 548 129 347 59 688
79 1050 60z m-343 -490 c42 -152 58 -213 56 -216 -2 -1 -25 -4 -51 -7 -44 -5
-49 -3 -57 19 -8 20 -16 24 -54 24 -28 0 -50 -6 -58 -15 -34 -41 -42 -45 -84
-45 -53 0 -55 9 -14 73 17 26 30 49 30 52 0 11 94 162 108 173 10 7 36 12 62
10 l45 -3 17 -65z m361 56 c38 -14 77 -42 77 -57 0 -4 -17 -17 -37 -29 -36
-21 -40 -22 -66 -6 -52 29 -112 12 -122 -35 -9 -42 2 -66 33 -72 31 -6 52 7
52 32 0 28 17 36 63 33 l44 -4 -15 -59 c-18 -72 -42 -89 -127 -89 -108 0 -165
46 -165 133 0 121 134 199 263 153z m246 -22 c2 -2 -8 -38 -23 -79 -30 -84
-31 -118 -3 -123 31 -6 55 27 83 115 l27 84 51 -6 c28 -4 53 -9 55 -11 7 -6
-38 -131 -66 -187 -19 -39 -34 -53 -70 -69 -85 -38 -189 -6 -212 65 -9 27 -7
47 14 117 14 47 27 91 30 98 3 9 19 11 57 6 29 -4 55 -8 57 -10z m-893 -10
c-3 -9 -6 -27 -6 -40 0 -20 -5 -24 -29 -24 -62 0 -121 -13 -121 -27 0 -9 8
-12 23 -9 12 3 39 8 60 11 l37 6 0 -39 c0 -46 -9 -52 -81 -52 -37 0 -49 -4
-49 -15 0 -12 13 -14 76 -8 l75 6 -7 -39 c-3 -21 -8 -40 -9 -41 -1 -2 -45 -7
-99 -13 -54 -5 -108 -13 -122 -16 -23 -6 -24 -4 -24 42 1 60 17 244 22 249 6
6 154 22 212 24 40 1 47 -2 42 -15z m1294 -50 c46 -9 88 -18 92 -20 13 -8 9
-38 -7 -61 -14 -20 -17 -21 -67 -7 -61 16 -88 18 -88 6 0 -5 25 -14 56 -21 53
-12 55 -14 49 -39 -10 -42 -19 -46 -84 -35 -47 7 -61 7 -61 -3 0 -7 27 -17 65
-24 36 -7 65 -16 65 -20 0 -21 -24 -70 -33 -69 -7 0 -61 10 -122 22 -125 25
-121 19 -81 122 13 33 34 86 46 118 22 57 24 59 54 52 17 -3 69 -13 116 -21z
m-1730 -90 c0 -96 2 -105 18 -100 9 3 39 8 65 12 l48 6 -7 -38 c-3 -22 -9 -41
-11 -44 -6 -6 -171 -39 -200 -39 -23 -1 -23 0 -23 143 l0 144 38 10 c75 20 72
24 72 -94z m580 -161 c0 -5 24 -33 53 -64 94 -101 242 -263 285 -313 38 -44
41 -51 28 -64 -13 -13 -25 -6 -98 58 -220 194 -348 313 -348 323 0 27 79 86
80 60z m542 -20 c15 -15 28 -32 28 -39 0 -6 -61 -67 -136 -134 l-136 -123 -25
26 -26 25 99 108 c55 59 110 121 124 136 30 35 37 35 72 1z m-664 -355 c1
-120 -1 -218 -5 -218 -5 0 -24 15 -43 33 -19 17 -69 61 -110 97 -41 36 -77 67
-80 70 -5 5 -193 168 -237 205 -13 11 -23 23 -23 27 0 5 111 7 248 6 l247 -3
3 -217z m1202 214 c0 -10 -28 -35 -140 -131 -41 -35 -77 -67 -80 -70 -3 -4
-54 -49 -115 -101 -60 -52 -118 -102 -128 -112 -10 -10 -20 -18 -22 -18 -3 0
-5 99 -5 220 l0 220 245 0 c135 0 245 -4 245 -8z m-865 -193 c19 -20 18 -21
-25 -59 -51 -44 -53 -45 -69 -26 -9 11 -4 23 26 59 21 25 41 46 44 46 3 1 14
-8 24 -20z m-95 -120 c0 -12 -27 -11 -35 1 -11 17 5 32 21 19 8 -6 14 -15 14
-20z m286 2 c-8 -13 -36 -15 -36 -3 0 4 5 13 12 20 14 14 34 0 24 -17z m-331
-21 c11 -17 -5 -32 -21 -19 -7 6 -11 15 -8 20 7 12 21 11 29 -1z m369 1 c7
-10 -22 -37 -30 -28 -9 8 3 37 15 37 5 0 12 -4 15 -9z m-400 -40 c9 -14 -44
-72 -57 -65 -8 5 -7 2 1 -7 18 -20 15 -39 -8 -39 -24 0 -60 37 -60 63 0 14 5
18 18 15 10 -3 31 5 48 18 31 25 49 30 58 15z m451 -7 c14 -9 25 -23 25 -32 0
-12 3 -13 12 -4 36 36 52 -7 16 -45 -27 -29 -63 -31 -55 -4 3 11 -5 29 -19 44
-25 27 -32 57 -14 57 6 0 22 -7 35 -16z"/>
<path d="M1486 1474 c-9 -22 -8 -24 9 -24 8 0 15 9 15 20 0 24 -15 27 -24 4z"/>
</g>
</svg>
